<?xml version="1.0" standalone="no"?>
<!DOCTYPE svg PUBLIC "-//W3C//DTD SVG 20010904//EN"
 "http://www.w3.org/TR/2001/REC-SVG-20010904/DTD/svg10.dtd">
<svg version="1.0" xmlns="http://www.w3.org/2000/svg"
 width="1280.000000pt" height="1280.000000pt" viewBox="0 0 1280.000000 1280.000000"
 preserveAspectRatio="xMidYMid meet">
<metadata>
Created by potrace 1.11, written by Peter Selinger 2001-2013
</metadata>
<g transform="translate(0.000000,1280.000000) scale(0.100000,-0.100000)"
fill="#000000" stroke="none">
<path d="M6149 12796 c-2 -2 -40 -6 -84 -10 -121 -9 -170 -16 -295 -37 -142
-24 -145 -25 -200 -38 -25 -5 -56 -12 -70 -15 -14 -3 -82 -21 -152 -40 -429
-120 -841 -318 -1213 -585 -267 -191 -504 -412 -720 -671 -44 -53 -91 -111
-105 -129 -14 -19 -30 -39 -35 -45 -6 -6 -52 -74 -103 -151 -51 -77 -97 -145
-102 -152 -6 -7 -10 -14 -10 -16 0 -2 -22 -42 -49 -88 -102 -179 -227 -458
-294 -659 -31 -94 -77 -244 -81 -267 -2 -10 -9 -38 -16 -63 -7 -25 -14 -56
-16 -70 -2 -14 -7 -36 -10 -50 -12 -51 -31 -154 -39 -212 -3 -21 -8 -55 -11
-75 -3 -21 -7 -56 -9 -78 -2 -22 -7 -71 -11 -110 -15 -137 -8 -676 10 -775 3
-14 8 -47 11 -75 4 -27 8 -59 10 -70 2 -11 6 -38 9 -60 6 -43 6 -44 31 -155 9
-41 18 -82 19 -90 8 -48 75 -278 116 -395 81 -233 209 -504 343 -725 40 -66
205 -311 216 -320 18 -15 291 -437 291 -450 0 -5 3 -10 8 -12 4 -1 29 -39 56
-83 27 -44 72 -116 99 -160 57 -92 327 -545 327 -549 0 -2 23 -43 51 -92 28
-49 72 -127 97 -174 25 -47 68 -128 96 -180 111 -205 223 -442 346 -725 35
-82 79 -216 94 -285 13 -61 35 -168 41 -205 11 -63 13 -75 25 -160 6 -44 13
-93 16 -110 3 -16 7 -50 9 -75 3 -25 7 -61 10 -80 5 -34 8 -64 20 -195 3 -33
8 -80 10 -105 20 -189 38 -454 50 -699 3 -69 8 -128 11 -132 4 -7 137 -40 314
-79 47 -10 119 -26 160 -35 41 -9 86 -18 100 -20 14 -2 59 -10 100 -19 74 -14
244 -44 298 -50 15 -2 52 -7 82 -11 30 -4 57 -8 60 -10 12 -7 217 -19 335 -19
113 0 274 9 325 19 9 2 41 6 71 9 30 3 65 8 79 10 14 3 43 7 65 11 22 3 67 10
100 16 33 5 71 12 85 14 14 3 36 7 50 10 37 7 81 15 115 21 48 9 258 54 345
74 60 14 83 19 158 36 62 14 72 19 73 38 0 11 2 44 4 71 1 28 6 104 9 170 4
66 9 145 11 175 5 72 17 215 21 265 2 22 5 67 8 100 7 81 23 233 31 300 2 17
10 75 16 130 6 55 13 109 15 120 1 11 6 40 9 65 4 25 9 56 11 70 3 14 7 39 9
55 3 17 7 41 10 55 2 14 7 39 10 55 22 111 63 263 85 310 5 11 27 65 49 120
58 147 102 243 238 515 113 226 158 313 240 460 17 30 50 91 74 135 23 44 45
82 48 85 3 3 17 25 30 50 22 42 48 85 165 283 25 43 46 82 46 87 0 6 4 10 8
10 5 0 14 12 21 27 30 66 372 599 450 703 105 137 209 292 280 415 28 50 56
97 60 105 14 22 105 204 106 210 1 3 13 30 27 60 14 30 40 91 57 135 18 44 36
89 41 100 27 60 113 345 124 410 2 11 11 47 19 80 9 33 23 101 31 150 9 50 18
101 21 115 6 35 24 183 32 266 9 99 9 554 0 649 -8 80 -11 112 -22 195 -3 25
-7 59 -10 75 -29 229 -122 574 -227 840 -81 207 -198 442 -294 592 -19 29 -34
56 -34 58 0 3 -15 27 -33 53 -19 26 -55 79 -82 117 -297 428 -728 825 -1205
1110 -115 68 -430 225 -453 225 -10 0 -17 5 -17 10 0 6 -6 10 -12 10 -11 0
-132 44 -193 71 -22 9 -210 67 -241 74 -10 2 -35 9 -54 15 -113 35 -423 92
-565 105 -38 4 -81 9 -95 12 -27 5 -586 14 -591 9z m-939 -3151 c78 -17 218
-132 306 -250 16 -22 36 -48 44 -57 8 -10 40 -59 70 -108 30 -50 59 -91 64
-91 5 -1 23 23 39 52 102 183 248 338 385 409 61 32 74 35 152 35 74 -1 93 -5
145 -30 123 -61 264 -233 341 -417 20 -45 36 -84 38 -85 1 -2 26 32 56 75 65
94 207 236 298 295 144 96 251 136 379 143 162 8 220 -64 250 -314 9 -78 9
-428 -1 -552 -11 -144 -16 -204 -21 -230 -2 -14 -6 -59 -10 -100 -3 -41 -8
-82 -10 -90 -2 -8 -6 -40 -10 -70 -3 -30 -7 -66 -9 -80 -3 -14 -7 -47 -11 -75
-3 -27 -10 -77 -15 -110 -13 -85 -18 -124 -25 -175 -3 -25 -7 -52 -9 -60 -1
-8 -6 -37 -10 -65 -4 -27 -10 -61 -12 -75 -2 -14 -7 -41 -10 -60 -3 -19 -13
-80 -24 -135 -10 -55 -21 -122 -25 -149 -3 -27 -8 -52 -10 -56 -2 -4 -7 -29
-11 -56 -3 -27 -8 -58 -10 -69 -2 -11 -11 -58 -19 -105 -9 -47 -20 -105 -25
-130 -6 -25 -12 -60 -15 -77 -3 -18 -15 -79 -26 -135 -11 -57 -23 -116 -26
-132 -4 -24 -115 -570 -127 -626 -2 -8 -7 -33 -11 -55 -5 -22 -9 -42 -10 -45
-3 -10 -17 -90 -17 -97 0 -5 -4 -19 -9 -32 -5 -13 -12 -40 -15 -60 -3 -20 -8
-45 -11 -56 -8 -25 -9 -30 -18 -85 -4 -24 -8 -47 -10 -50 -2 -3 -22 -91 -45
-196 -23 -104 -43 -196 -45 -204 -13 -54 -25 -109 -29 -132 -2 -15 -7 -31 -9
-36 -3 -4 -8 -27 -12 -51 -3 -24 -10 -53 -15 -65 -4 -13 -11 -40 -14 -62 -4
-21 -11 -57 -17 -79 -6 -22 -13 -49 -15 -60 -3 -17 -15 -71 -19 -85 -11 -38
-16 -58 -19 -75 -1 -11 -6 -31 -9 -45 -30 -115 -55 -235 -51 -242 3 -4 14 -8
25 -8 11 0 54 -11 95 -25 210 -70 230 -141 163 -555 -34 -204 -28 -174 -80
-422 -11 -53 -22 -102 -23 -110 -2 -7 -6 -24 -9 -38 -23 -88 -67 -273 -71
-295 -3 -13 -7 -28 -10 -33 -3 -5 -8 -24 -11 -43 -3 -19 -8 -42 -11 -51 -3 -9
-7 -25 -9 -35 -2 -10 -16 -61 -30 -113 -14 -52 -30 -112 -36 -132 -8 -31 -14
-38 -34 -38 -35 0 -77 18 -70 30 6 10 141 537 151 590 3 14 7 33 10 42 3 9 6
25 9 35 2 10 15 69 29 131 37 159 94 438 102 497 3 28 8 53 10 56 14 25 24
275 11 312 -20 58 -144 104 -357 131 -108 13 -570 15 -655 3 -16 -3 -57 -8
-90 -12 -33 -3 -67 -8 -75 -10 -8 -2 -35 -7 -59 -10 -127 -18 -154 -67 -155
-275 0 -88 9 -217 19 -265 3 -11 7 -31 9 -45 39 -223 153 -626 281 -990 23
-66 24 -70 25 -75 1 -2 12 -32 26 -67 29 -75 29 -74 3 -81 -50 -13 -77 3 -98
57 -72 186 -233 692 -262 826 -4 19 -17 76 -29 125 -24 100 -23 95 -44 220
-27 159 -35 328 -20 420 19 123 84 212 170 234 46 12 104 22 131 24 9 0 6 10
-7 31 -19 28 -116 223 -153 306 -40 91 -151 393 -195 530 -90 283 -143 460
-141 470 0 3 -6 23 -14 45 -9 22 -19 54 -23 70 -10 40 -6 25 -63 235 -28 102
-53 194 -56 205 -2 11 -15 65 -29 120 -31 125 -86 353 -92 380 -2 11 -6 29 -8
40 -3 11 -12 54 -21 95 -22 99 -63 293 -70 331 -2 9 -15 74 -28 145 -14 71
-28 143 -31 159 -10 61 -26 151 -30 171 -5 24 -13 76 -22 132 -3 20 -9 62 -15
93 -5 31 -12 74 -14 95 -3 22 -7 50 -9 64 -2 14 -9 63 -15 110 -6 47 -14 103
-17 125 -11 83 -30 262 -39 380 -52 655 0 1051 153 1186 59 51 121 64 212 44z"/>
<path d="M5085 9546 c-59 -34 -115 -151 -131 -271 -3 -22 -7 -46 -9 -53 -10
-29 -19 -198 -19 -362 -1 -196 9 -377 29 -575 4 -33 8 -73 10 -90 12 -115 17
-160 20 -165 1 -3 6 -36 10 -73 3 -37 8 -76 10 -85 1 -9 6 -39 9 -67 7 -53 23
-157 30 -190 2 -11 7 -45 12 -75 4 -30 8 -57 9 -60 1 -3 5 -30 10 -60 5 -30 9
-57 10 -60 2 -5 10 -49 21 -105 3 -16 7 -41 9 -55 2 -14 22 -117 45 -230 40
-200 44 -218 55 -270 3 -14 7 -34 9 -45 2 -11 9 -38 15 -60 5 -22 13 -56 16
-75 3 -19 8 -43 11 -52 3 -9 6 -25 8 -35 19 -91 164 -675 193 -773 9 -30 18
-59 19 -65 4 -20 33 -122 52 -185 11 -36 32 -105 47 -155 61 -211 215 -644
282 -794 47 -107 129 -270 156 -312 l32 -48 100 7 c189 13 551 7 638 -11 10
-2 21 33 32 103 3 19 10 46 15 60 5 14 19 70 31 125 13 55 24 105 25 110 2 6
5 21 8 35 3 14 17 77 32 140 14 63 32 142 39 175 8 33 23 102 35 154 11 52 23
97 24 100 2 3 7 22 10 41 3 19 8 45 11 58 3 12 7 30 9 40 7 32 58 267 66 307
5 22 20 93 34 157 14 64 28 127 30 140 3 13 8 34 11 48 3 14 7 36 10 50 3 14
7 34 9 45 3 11 14 67 26 125 12 58 23 114 26 125 2 11 6 31 9 45 2 14 21 106
41 205 20 99 38 190 39 202 2 11 6 29 9 40 3 10 8 36 11 58 4 22 15 85 25 140
11 55 22 114 25 130 2 17 7 40 9 51 2 12 7 37 10 55 3 19 7 43 10 54 2 11 7
40 11 65 8 51 12 74 20 110 2 14 7 39 9 55 3 17 12 71 21 122 8 51 18 111 21
135 3 24 9 66 14 93 18 101 45 289 56 383 3 29 8 63 10 75 3 12 7 38 9 57 2
19 6 60 9 90 19 169 20 179 33 335 10 123 10 517 0 585 -12 81 -34 154 -55
180 -47 58 -235 13 -405 -98 -86 -56 -240 -207 -303 -297 -27 -38 -54 -76 -61
-83 -18 -19 -17 -26 17 -125 16 -48 32 -99 34 -112 2 -13 9 -32 14 -42 5 -10
16 -45 23 -78 7 -33 14 -64 15 -70 8 -29 15 -62 18 -80 2 -11 11 -63 19 -115
22 -128 26 -161 34 -260 9 -109 8 -380 -1 -445 -4 -27 -8 -63 -10 -80 -2 -16
-5 -30 -6 -30 -1 0 -3 -7 -5 -15 -9 -45 -49 -129 -73 -155 -49 -55 -77 -67
-149 -64 -204 7 -351 113 -424 304 -29 76 -39 208 -28 385 5 82 58 285 119
455 39 108 208 436 240 465 23 21 31 54 20 84 -39 103 -65 163 -77 177 -7 8
-13 21 -13 28 0 6 -5 17 -10 24 -6 7 -24 33 -40 58 -77 119 -193 206 -283 213
-109 8 -245 -88 -383 -271 -54 -71 -154 -236 -154 -254 0 -4 22 -55 49 -111
96 -204 170 -408 219 -608 34 -135 36 -150 57 -285 14 -90 15 -325 1 -375 -4
-14 -8 -29 -10 -35 -20 -80 -45 -126 -97 -176 -64 -63 -124 -83 -227 -76 -93
5 -105 8 -174 41 -124 59 -203 183 -244 386 -6 34 -7 253 -1 276 3 11 8 45 12
78 3 32 17 106 31 165 13 58 27 117 30 130 3 13 9 31 13 40 5 9 9 18 9 21 1
33 78 238 135 363 20 42 36 78 36 80 0 1 10 22 24 46 l25 43 -36 67 c-107 202
-259 381 -380 449 -32 18 -112 23 -137 8z"/>
<path d="M5683 8899 c-16 -21 -119 -258 -144 -331 -11 -35 -23 -70 -26 -78 -3
-8 -7 -19 -8 -25 -2 -5 -10 -37 -19 -70 -9 -33 -19 -69 -21 -80 -53 -234 -61
-408 -29 -590 9 -51 59 -148 97 -187 41 -43 97 -73 151 -84 189 -35 274 37
302 256 5 40 5 202 0 240 -2 14 -6 50 -10 80 -30 226 -117 520 -223 750 -14
30 -33 72 -42 94 -13 30 -19 35 -28 25z"/>
<path d="M6728 8846 c-66 -113 -96 -169 -133 -256 -20 -47 -42 -98 -50 -115
-15 -36 -55 -157 -55 -168 0 -4 -6 -23 -14 -42 -8 -19 -13 -35 -11 -35 2 0 -1
-15 -6 -32 -10 -33 -13 -46 -30 -153 -12 -79 -12 -219 1 -286 13 -69 60 -165
101 -207 37 -37 105 -80 141 -88 62 -13 118 -20 139 -17 86 12 138 237 125
548 -3 88 -8 171 -11 184 -2 13 -7 47 -9 75 -7 71 -43 265 -68 365 -11 46 -21
89 -23 95 -1 6 -5 18 -8 26 -3 8 -16 50 -29 92 l-23 77 -37 -63z"/>
<path d="M4950 1945 c0 -3 55 -87 121 -186 l121 -180 -67 -67 c-120 -119 -186
-230 -180 -303 6 -76 95 -211 212 -325 l35 -34 -44 -36 c-75 -62 -162 -160
-187 -210 -38 -75 -29 -118 51 -239 84 -128 246 -234 438 -286 57 -16 87 -22
210 -44 124 -22 325 -30 745 -30 361 0 608 8 655 20 8 2 40 6 71 10 31 3 67 8
80 11 13 3 37 8 53 10 16 3 73 19 127 35 183 54 319 146 403 274 72 107 84
158 53 219 -26 53 -157 183 -230 228 -7 4 6 24 35 55 26 26 57 62 70 78 12 17
31 39 41 50 37 41 97 176 97 219 0 74 -56 168 -175 294 -36 38 -65 72 -65 76
0 9 43 70 53 74 4 2 7 7 7 12 0 4 37 63 83 131 46 68 87 129 91 136 5 9 -7 8
-41 -3 -116 -36 -472 -123 -573 -140 -14 -2 -34 -6 -46 -9 -12 -3 -36 -7 -55
-9 -64 -9 -104 -16 -124 -20 -11 -2 -45 -7 -75 -11 -30 -3 -66 -8 -80 -10 -24
-4 -117 -12 -225 -21 -64 -5 -439 -5 -485 0 -19 2 -66 7 -105 11 -38 3 -101
10 -140 16 -38 5 -86 11 -105 14 -76 9 -239 39 -365 66 -49 11 -99 22 -110 24
-27 5 -49 11 -120 30 -33 9 -69 18 -80 21 -25 5 -158 45 -167 51 -5 2 -8 1 -8
-2z m2565 -436 c22 -35 -161 -151 -515 -327 -289 -144 -452 -204 -630 -232
-211 -33 -281 -38 -535 -40 -313 -3 -320 -1 -122 25 76 11 113 16 127 20 14 4
61 11 125 20 55 8 320 68 425 96 108 29 413 130 424 140 6 5 16 9 23 9 7 0 48
16 90 36 43 19 94 42 113 51 19 8 42 19 50 23 8 5 35 19 60 31 25 13 86 47
135 78 115 69 213 99 230 70z m-5 -679 c12 -7 11 -12 -5 -32 -33 -38 -97 -79
-287 -185 -384 -213 -670 -323 -930 -358 -174 -23 -600 -38 -693 -24 l-40 6
40 2 c22 2 49 4 60 6 11 2 38 7 60 10 22 3 54 7 70 10 17 3 59 10 95 16 36 5
85 14 110 19 25 6 56 12 70 14 43 7 252 55 310 72 67 19 65 18 120 33 72 20
143 42 165 51 11 4 34 13 50 18 17 6 39 14 50 18 11 4 22 8 25 8 50 9 436 195
517 248 96 65 177 91 213 68z"/>
</g>
</svg>
